<?xml version="1.0" encoding="UTF-8"?>
<svg width="24px" height="24px" viewBox="0 0 24 24" version="1.1" xmlns="http://www.w3.org/2000/svg" xmlns:xlink="http://www.w3.org/1999/xlink">
    <title>编组_2</title>
    <g id="icon-v2" stroke="none" stroke-width="1" fill="none" fill-rule="evenodd">
        <g id="icon" transform="translate(-7.000000, -15.000000)">
            <g id="Deposit" transform="translate(7.000000, 15.000000)">
                <rect id="矩形" fill="#D8D8D8" opacity="0.0405040923" x="0" y="0" width="24" height="24"></rect>
                <g id="编组" transform="translate(4.000000, 11.000000)" stroke="#979797" stroke-linecap="round" stroke-linejoin="round" stroke-width="1.33425414">
                    <path d="M2.20994475,4.10177211 C3.68324125,1.37951309 5.3038674,0.0183835762 7.0718232,0.0183835762 C8.83977901,0.0183835762 10.0184162,0.0183835762 10.6077348,0.0183835762 C11.1970534,0.0183835762 11.4917127,0.169620189 11.4917127,0.472093414" id="路径-62"></path>
                    <polygon id="路径-63" points="2.20994475 4.10177211 0 5.91661146 2.6519337 10 4.86187845 8.18516065"></polygon>
                    <path d="M4.86187845,8.18516065 C8.39779006,8.7901071 11.6390424,7.27774098 14.5856354,3.64806228" id="路径-64"></path>
                    <path d="M14.5856354,3.64806228 C15.7642726,2.13569615 16.2062615,1.07703986 15.9116022,0.472093414 C15.4696133,-0.435326261 15.0276243,0.0183835762 12.8176796,1.37951309 C11.3443831,2.28693276 9.57642726,2.7406426 7.51381215,2.7406426" id="路径-65"></path>
                    <path d="M11.4917127,0.472093414 C11.786372,1.68198631 11.4917127,2.28693276 10.6077348,2.28693276" id="路径-66"></path>
                </g>
                <circle id="椭圆形" stroke="#979797" stroke-width="1.2" cx="13" cy="6.5" r="2.4"></circle>
            </g>
        </g>
    </g>
</svg>