<?xml version="1.0" encoding="UTF-8"?>
<svg width="24px" height="24px" viewBox="0 0 24 24" version="1.1" xmlns="http://www.w3.org/2000/svg" xmlns:xlink="http://www.w3.org/1999/xlink">
    <title>adjust</title>
    <defs>
        <filter id="filter-1">
            <feColorMatrix in="SourceGraphic" type="matrix" values="0 0 0 0 1.000000 0 0 0 0 1.000000 0 0 0 0 1.000000 0 0 0 1.000000 0"></feColorMatrix>
        </filter>
    </defs>
    <g id="页面-1" stroke="none" stroke-width="1" fill="none" fill-rule="evenodd">
        <g id="adjust" transform="translate(-20.000000, -747.000000)" filter="url(#filter-1)">
            <g transform="translate(20.000000, 747.000000)">
                <rect id="矩形" x="0" y="0" width="24" height="24"></rect>
                <g id="编组-4" transform="translate(4.000000, 17.250000)" stroke="#979797">
                    <g id="编组" transform="translate(-0.000000, 1.500000)" stroke-linecap="round" stroke-linejoin="round" stroke-width="1.40070423">
                        <path d="M0,0.5 L2.15384615,0.5 M5.38461538,0.5 C5.38461538,0.5 8.25641026,0.5 14,0.5" id="形状"></path>
                    </g>
                    <circle id="椭圆形备份-3" stroke-width="1.43661972" cx="4" cy="2" r="1.28169014"></circle>
                </g>
                <g id="编组-3" transform="translate(4.000000, 14.000000)" stroke="#979797" stroke-width="1.25">
                    <path d="M0,2 L6.58064516,2 M9.87096774,2 C9.87096774,2 12.2473118,2 17,2" id="形状" stroke-linecap="round" stroke-linejoin="round"></path>
                    <circle id="椭圆形备份-2" cx="8.5" cy="2" r="1.375"></circle>
                </g>
                <g id="编组-2" transform="translate(3.000000, 4.000000)" stroke="#979797">
                    <path d="M4.93647913,2.12068966 L1.8008167,2.12068966 C1.21520442,2.12068966 0.740471869,2.5954222 0.740471869,3.18103448 C0.740471869,3.76664676 1.21520442,4.24137931 1.8008167,4.24137931 L3.88747731,4.24137931 L3.88747731,4.24137931" id="路径-7备份" stroke-width="1.245" stroke-linecap="round" stroke-linejoin="round"></path>
                    <path d="M8.60798548,0 L1.06034483,0 C0.47473255,-1.14469375e-16 1.79168473e-15,0.47473255 1.86340155e-15,1.06034483 C1.93511837e-15,1.64595711 0.47473255,2.12068966 1.06034483,2.12068966 L3.70235935,2.12068966 L3.70235935,2.12068966" id="路径-7备份-2" stroke-width="1.245" stroke-linecap="round" stroke-linejoin="round"></path>
                    <path d="M11.7644143,8.73320859 C13.0242067,7.87637956 13.8529946,6.4217991 13.8529946,4.77155172 M9.13248639,-9.73167906e-15 C6.52542172,-9.73167906e-15 4.41197822,2.13629647 4.41197822,4.77155172 C4.41197822,6.42577997 5.24476943,7.88339615 6.50968296,8.7393989" id="形状" stroke-width="1.25" stroke-linecap="round"></path>
                    <path d="M10.6992939,6.89750205 C11.3400789,6.41419655 11.7549909,5.64185203 11.7549909,4.77155172 C11.7549909,3.30752103 10.5808557,2.12068966 9.13248639,2.12068966 C7.68411713,2.12068966 6.50998185,3.30752103 6.50998185,4.77155172 C6.50998185,5.63780637 6.92104536,6.40701383 7.5567573,6.89074329" id="路径" stroke-width="1.25" stroke-linecap="round"></path>
                    <path d="M6.09038113,8.42974138 C7.06944949,9.17198276 7.7338173,9.18965517 8.08348457,8.48275862 C8.43315185,7.77586207 8.25831821,7.24568966 7.55898367,6.89224138" id="路径-8" stroke-width="1.25" stroke-linecap="round"></path>
                    <path d="M10.076588,8.42974138 C11.0556564,9.17198276 11.7200242,9.18965517 12.0696915,8.48275862 C12.4193587,7.77586207 12.2445251,7.24568966 11.5451906,6.89224138" id="路径-8备份" stroke-width="1.25" stroke-linecap="round" transform="translate(11.160557, 7.946121) scale(-1, 1) translate(-11.160557, -7.946121) "></path>
                    <path d="M9.13248639,0 L14.8450704,0 C16.0352052,-2.18624205e-16 17,0.964794835 17,2.15492958 L17,3.67696697 C17,4.86710172 16.0352052,5.83189655 14.8450704,5.83189655 L13.8529946,5.83189655 L13.8529946,5.83189655" id="路径-6" stroke-width="1.25"></path>
                </g>
            </g>
        </g>
    </g>
</svg>