<?xml version="1.0" encoding="UTF-8"?>
<svg width="24px" height="24px" viewBox="0 0 24 24" version="1.1" xmlns="http://www.w3.org/2000/svg" xmlns:xlink="http://www.w3.org/1999/xlink">
    <title>地址簿备份</title>
    <defs>
        <filter id="filter-1">
            <feColorMatrix in="SourceGraphic" type="matrix" values="0 0 0 0 0.631373 0 0 0 0 0.631373 0 0 0 0 0.631373 0 0 0 1.000000 0"></feColorMatrix>
        </filter>
    </defs>
    <g id="页面-1" stroke="none" stroke-width="1" fill="none" fill-rule="evenodd" stroke-linecap="round" stroke-linejoin="round">
        <g id="地址簿备份" transform="translate(-338.000000, -348.000000)" filter="url(#filter-1)">
            <g transform="translate(338.000000, 348.000000)">
                <line x1="17" y1="4.5" x2="20.5" y2="4.5" id="路径-8备份" stroke="#979797" stroke-width="1.5"></line>
                <line x1="17" y1="7.5" x2="20.5" y2="7.5" id="路径-8备份-2" stroke="#979797" stroke-width="1.5"></line>
                <line x1="18.5" y1="10.5" x2="20.5" y2="10.5" id="路径-8备份-3" stroke="#979797" stroke-width="1.5"></line>
                <path d="M11,4 C8.48717949,4 7.23076923,5.60714286 7.23076923,8.82142857 C7.23076923,10.6071429 7.94871795,12.0357143 9.38461538,13.1071429 L4.5135906,16.1763855 C4.19392025,16.3778105 4,16.7292059 4,17.1070434 L4,17.9 C4,18.5075132 4.49248678,19 5.1,19 L11,19 L11,19" id="路径-7" stroke="#979797" stroke-width="1.5"></path>
                <path d="M18,4 C15.4871795,4 14.2307692,5.60714286 14.2307692,8.82142857 C14.2307692,10.6071429 14.9487179,12.0357143 16.3846154,13.1071429 L11.5135906,16.1763855 C11.1939202,16.3778105 11,16.7292059 11,17.1070434 L11,17.9 C11,18.5075132 11.4924868,19 12.1,19 L18,19 L18,19" id="路径-7备份" stroke="#979797" stroke-width="1.5" transform="translate(14.500000, 11.500000) scale(-1, 1) translate(-14.500000, -11.500000) "></path>
            </g>
        </g>
    </g>
</svg>