<?xml version="1.0" encoding="UTF-8"?>
<svg width="24px" height="24px" viewBox="0 0 24 24" version="1.1" xmlns="http://www.w3.org/2000/svg" xmlns:xlink="http://www.w3.org/1999/xlink">
    <title>编组</title>
    <g id="icon-v2" stroke="none" stroke-width="1" fill="none" fill-rule="evenodd">
        <g id="icon" transform="translate(-31.000000, -111.000000)">
            <g id="Mint" transform="translate(31.000000, 111.000000)">
                <line x1="6.5" y1="10.25" x2="8.5" y2="10.25" id="路径-17" stroke="#979797" stroke-linecap="round"></line>
                <line x1="6.5" y1="12.25" x2="8.5" y2="12.25" id="路径-17备份" stroke="#979797" stroke-linecap="round"></line>
                <line x1="6.5" y1="14.25" x2="8.5" y2="14.25" id="路径-17备份-2" stroke="#979797" stroke-linecap="round"></line>
                <line x1="6.5" y1="16.25" x2="8.5" y2="16.25" id="路径-17备份-3" stroke="#979797" stroke-linecap="round"></line>
                <path d="M16.5,5 L4.5,5 L4.5,5 L6,8.5 L6,18 L6,19 C6,19.5522847 6.44771525,20 7,20 L16.9964192,20 C17.5486927,19.9999796 17.9963988,19.5522735 17.9963988,19 C17.9963988,18.9988309 17.9963968,18.9976619 17.9963927,18.9964928 C17.9706946,11.6693998 17.971897,7.83723557 18,7.5 L18,6.5 C18,5.67157288 17.3284271,5 16.5,5 Z" id="路径" stroke="#979797" stroke-width="1.5" stroke-linecap="round" stroke-linejoin="round"></path>
                <path d="M6,13 C7.33333333,12.6666667 9.16666667,12.8333333 11.5,13.5 C13.8333333,14.1666667 16,13.8333333 18,12.5" id="路径-15" stroke="#979797"></path>
                <circle id="椭圆形" stroke="#979797" fill="#D8D8D8" cx="15" cy="16" r="1"></circle>
                <circle id="椭圆形备份-2" fill="#979797" cx="10.5" cy="17.5" r="1"></circle>
            </g>
        </g>
    </g>
</svg>