<?xml version="1.0" encoding="UTF-8"?>
<svg width="24px" height="24px" viewBox="0 0 24 24" version="1.1" xmlns="http://www.w3.org/2000/svg" xmlns:xlink="http://www.w3.org/1999/xlink">
    <title>redeem</title>
    <g id="icon-v2" stroke="none" stroke-width="1" fill="none" fill-rule="evenodd">
        <g id="icon" transform="translate(-7.000000, -111.000000)">
            <g id="Redeem" transform="translate(7.000000, 111.000000)">
                <rect id="矩形" fill="#D8D8D8" opacity="0" x="0" y="0" width="24" height="24"></rect>
                <circle id="椭圆形" stroke="#979797" stroke-width="1.5" cx="12" cy="14" r="6.25"></circle>
                <path d="M14.0264706,11.2954545 C13.4961676,10.7651515 12.8332888,10.5 12.0378343,10.5 C10.8446525,10.5 10.0491979,11.2954545 10.4469252,12.4886364 C10.7120767,13.2840909 11.3749555,13.8143939 12.4355616,14.0795455" id="路径-11" stroke="#979797" stroke-width="1.5" stroke-linecap="round" stroke-linejoin="round"></path>
                <path d="M14.0264706,14.7159091 C13.4961676,14.1856061 12.8332888,13.9204545 12.0378343,13.9204545 C10.8446525,13.9204545 10.0491979,14.7159091 10.4469252,15.9090909 C10.7120767,16.7045455 11.3749555,17.2348485 12.4355616,17.5" id="路径-11备份" stroke="#979797" stroke-width="1.5" stroke-linecap="round" stroke-linejoin="round" transform="translate(12.184968, 15.710227) scale(-1, -1) translate(-12.184968, -15.710227) "></path>
                <line x1="12" y1="9.5" x2="12" y2="10.5" id="路径-16" stroke="#979797" stroke-width="1.5" stroke-linecap="round"></line>
                <line x1="12" y1="18" x2="12" y2="18.5" id="路径-16备份" stroke="#979797" stroke-width="1.5" stroke-linecap="round"></line>
                <path d="M11.875061,2.09995121 L9.9452172,3.64382624 C9.85896482,3.71282815 9.84498054,3.83868662 9.91398245,3.92493901 C9.95193689,3.97238206 10.0093995,4 10.0701562,4 L11,4 L11,4 L11,5.8 C11,5.91045695 11.0895431,6 11.2,6 L12.8,6 C12.9104569,6 13,5.91045695 13,5.8 L13,4 L13,4 L13.9298438,4 C14.0403007,4 14.1298438,3.91045695 14.1298438,3.8 C14.1298438,3.73924326 14.1022258,3.68178068 14.0547828,3.64382624 L12.124939,2.09995121 C12.0518953,2.04151622 11.9481047,2.04151622 11.875061,2.09995121 Z" id="路径-20" fill="#979797"></path>
            </g>
        </g>
    </g>
</svg>