<?xml version="1.0" encoding="UTF-8"?>
<svg width="24px" height="24px" viewBox="0 0 24 24" version="1.1" xmlns="http://www.w3.org/2000/svg" xmlns:xlink="http://www.w3.org/1999/xlink">
    <title>remove</title>
    <g id="icon-v2" stroke="none" stroke-width="1" fill="none" fill-rule="evenodd">
        <g id="icon" transform="translate(-31.000000, -39.000000)">
            <g id="remove" transform="translate(31.000000, 39.000000)">
                <rect id="矩形" fill="#D8D8D8" opacity="0" x="0" y="0" width="24" height="24"></rect>
                <path d="M20,13 L20,18.5 C20,19.0522847 19.5522847,19.5 19,19.5 L5,19.5 C4.44771525,19.5 4,19.0522847 4,18.5 L4,13 L4,13" id="路径" stroke="#979797" stroke-width="1.5" stroke-linecap="round" stroke-linejoin="round"></path>
                <path d="M4,13 C7,15 9.66666667,15 12,13 C14.3333333,11 17,11 20,13" id="路径-54" stroke="#979797" stroke-width="1.5" stroke-linecap="round" transform="translate(12.000000, 13.000000) scale(-1, 1) translate(-12.000000, -13.000000) "></path>
                <path d="M16,4 C14.6666667,5 14,6.33333333 14,8 C14,9.66666667 14.6666667,10.5 16,10.5" id="路径-55" stroke="#979797" stroke-width="1.5" stroke-linecap="round" stroke-linejoin="round"></path>
                <path d="M16,4 C17.3333333,5.33333333 18,6.66666667 18,8 C18,9.33333333 17.5,10.5 16,10.5" id="路径-55备份" stroke="#979797" stroke-width="1.5" stroke-linecap="round" stroke-linejoin="round"></path>
                <line x1="5" y1="6.5" x2="10" y2="6.5" id="路径-2" stroke="#979797" stroke-width="1.5" stroke-linecap="round"></line>
            </g>
        </g>
    </g>
</svg>