<?xml version="1.0" encoding="UTF-8"?>
<svg width="24px" height="24px" viewBox="0 0 24 24" version="1.1" xmlns="http://www.w3.org/2000/svg" xmlns:xlink="http://www.w3.org/1999/xlink">
    <title>reward</title>
    <g id="icon-v2" stroke="none" stroke-width="1" fill="none" fill-rule="evenodd">
        <g id="icon" transform="translate(-7.000000, -39.000000)">
            <g id="reward" transform="translate(7.000000, 39.000000)">
                <rect id="矩形" fill="#D8D8D8" opacity="0" x="0" y="0" width="24" height="24"></rect>
                <ellipse id="椭圆形" stroke="#979797" stroke-width="1.33333333" cx="9.33333333" cy="12.5" rx="4.88888889" ry="1.75"></ellipse>
                <path d="M13.6622439,11.5880298 C13.9864213,11.6122616 14.3223882,11.625 14.6666667,11.625 C17.3667254,11.625 19.5555556,10.8414983 19.5555556,9.875" id="路径" stroke="#979797" stroke-width="1.33333333"></path>
                <ellipse id="椭圆形备份-3" stroke="#979797" stroke-width="1.33333333" cx="14.6666667" cy="7.25" rx="4.88888889" ry="1.75"></ellipse>
                <path d="M4.44444444,15.125 C4.44444444,16.0914983 6.63327456,16.875 9.33333333,16.875 C12.0333921,16.875 14.2222222,16.0914983 14.2222222,15.125" id="路径" stroke="#979797" stroke-width="1.33333333"></path>
                <path d="M14.2276676,14.2430404 C14.3722814,14.2476472 14.5187064,14.25 14.6666667,14.25 C17.3667254,14.25 19.5555556,13.4664983 19.5555556,12.5" id="路径" stroke="#979797" stroke-width="1.33333333"></path>
                <path d="M4.44444444,17.75 C4.44444444,18.7164983 6.63327456,19.5 9.33333333,19.5 C12.0333921,19.5 14.2222222,18.7164983 14.2222222,17.75" id="路径" stroke="#979797" stroke-width="1.33333333"></path>
                <path d="M14.2556682,16.8689036 C14.3911734,16.8729409 14.5282483,16.875 14.6666667,16.875 C17.3667254,16.875 19.5555556,16.0914983 19.5555556,15.125" id="路径" stroke="#979797" stroke-width="1.33333333"></path>
                <line x1="4.44444444" y1="12.5" x2="4.44444444" y2="17.75" id="路径-6" stroke="#979797" stroke-width="1.33333333"></line>
                <path d="M9.77777778,7.25 C9.77777778,7.25 9.77777778,8.93739175 9.77777778,10.75" id="路径" stroke="#979797" stroke-width="1.33333333"></path>
                <line x1="14.2222222" y1="12.5" x2="14.2222222" y2="17.75" id="路径-6备份" stroke="#979797" stroke-width="1.33333333"></line>
                <line x1="19.5555556" y1="7.25" x2="19.5555556" y2="15.125" id="路径-6备份-3" stroke="#979797" stroke-width="1.33333333"></line>
            </g>
        </g>
    </g>
</svg>