<?xml version="1.0" encoding="UTF-8"?>
<svg width="24px" height="24px" viewBox="0 0 24 24" version="1.1" xmlns="http://www.w3.org/2000/svg" xmlns:xlink="http://www.w3.org/1999/xlink">
    <title>swap</title>
    <g id="icon-v2" stroke="none" stroke-width="1" fill="none" fill-rule="evenodd" stroke-linecap="round" stroke-linejoin="round">
        <g id="icon" transform="translate(-7.000000, -63.000000)" stroke="#979797" stroke-width="1.5">
            <g id="Swap" transform="translate(7.000000, 63.000000)">
                <line x1="16.25" y1="15.75" x2="19.25" y2="19.25" id="路径-29" transform="translate(17.750000, 17.500000) rotate(-270.000000) translate(-17.750000, -17.500000) "></line>
                <line x1="4.75" y1="11.25" x2="7.75" y2="7.75" id="路径-29备份" transform="translate(6.250000, 9.500000) rotate(-270.000000) translate(-6.250000, -9.500000) "></line>
                <line x1="19.25" y1="12.75" x2="16.25" y2="16.25" id="路径-30" transform="translate(17.750000, 14.500000) rotate(-270.000000) translate(-17.750000, -14.500000) "></line>
                <line x1="7.75" y1="8.25" x2="4.75" y2="4.75" id="路径-30备份" transform="translate(6.250000, 6.500000) rotate(-270.000000) translate(-6.250000, -6.500000) "></line>
                <line x1="12" y1="8.5" x2="12" y2="23.5" id="路径-31" transform="translate(12.000000, 16.000000) rotate(-270.000000) translate(-12.000000, -16.000000) "></line>
                <line x1="12" y1="15.5" x2="12" y2="0.5" id="路径-31备份" transform="translate(12.000000, 8.000000) rotate(-270.000000) translate(-12.000000, -8.000000) "></line>
            </g>
        </g>
    </g>
</svg>