<?xml version="1.0" encoding="UTF-8"?>
<svg width="24px" height="24px" viewBox="0 0 24 24" version="1.1" xmlns="http://www.w3.org/2000/svg" xmlns:xlink="http://www.w3.org/1999/xlink">
    <title>转出备份_2</title>
    <g id="icon" stroke="none" stroke-width="1" fill="none" fill-rule="evenodd" stroke-linecap="round">
        <g id="icon_out_24" stroke="#979797" stroke-width="1.5">
            <g id="转出备份-2">
                <polyline id="路径-47" stroke-linejoin="round" points="12 21 4 18 4 10"></polyline>
                <polyline id="路径-47备份" stroke-linejoin="round" transform="translate(16.000000, 15.500000) scale(-1, 1) translate(-16.000000, -15.500000) " points="20 21 12 18 12 10"></polyline>
                <line x1="12" y1="21" x2="12" y2="12.5" id="路径-49"></line>
                <line x1="4" y1="10" x2="12" y2="12.5" id="路径-50"></line>
                <line x1="12" y1="10" x2="20" y2="12.5" id="路径-50备份" transform="translate(16.000000, 11.250000) scale(-1, 1) translate(-16.000000, -11.250000) "></line>
                <path d="M14.3772303,8.24288447 L20,10" id="形状"></path>
                <path d="M4,8.24288447 L9.5,10" id="形状" transform="translate(6.750000, 9.121442) scale(-1, 1) translate(-6.750000, -9.121442) "></path>
                <line x1="12" y1="10" x2="12" y2="3.5" id="路径-52"></line>
                <line x1="12" y1="3.5" x2="8" y2="6" id="路径-53"></line>
                <line x1="16" y1="3.5" x2="12" y2="6" id="路径-53备份" transform="translate(14.000000, 4.750000) scale(-1, 1) translate(-14.000000, -4.750000) "></line>
            </g>
        </g>
    </g>
</svg>