<?xml version="1.0" encoding="UTF-8"?>
<svg width="24px" height="24px" viewBox="0 0 24 24" version="1.1" xmlns="http://www.w3.org/2000/svg" xmlns:xlink="http://www.w3.org/1999/xlink">
    <title>转入备份</title>
    <g id="icon" stroke="none" stroke-width="1" fill="none" fill-rule="evenodd" stroke-linecap="round">
        <g id="icon_in_24" stroke="#979797" stroke-width="1.5">
            <g id="转入备份">
                <polyline id="路径-47" stroke-linejoin="round" points="12 21 4 18 4 10"></polyline>
                <polyline id="路径-47备份" stroke-linejoin="round" transform="translate(16.000000, 15.500000) scale(-1, 1) translate(-16.000000, -15.500000) " points="20 21 12 18 12 10"></polyline>
                <line x1="12" y1="21" x2="12" y2="12.5" id="路径-49"></line>
                <line x1="4" y1="10" x2="12" y2="12.5" id="路径-50"></line>
                <line x1="12" y1="10" x2="20" y2="12.5" id="路径-50备份" transform="translate(16.000000, 11.250000) scale(-1, 1) translate(-16.000000, -11.250000) "></line>
                <path d="M4,9 L7,10" id="形状" transform="translate(5.500000, 9.500000) scale(-1, 1) translate(-5.500000, -9.500000) "></path>
                <path d="M17,9 L20,10" id="形状"></path>
                <g id="编组" transform="translate(12.000000, 6.750000) scale(1, -1) translate(-12.000000, -6.750000) translate(8.000000, 3.500000)">
                    <line x1="4" y1="6.5" x2="4" y2="0" id="路径-52"></line>
                    <line x1="4" y1="0" x2="0" y2="2.5" id="路径-53"></line>
                    <line x1="8" y1="0" x2="4" y2="2.5" id="路径-53备份" transform="translate(6.000000, 1.250000) scale(-1, 1) translate(-6.000000, -1.250000) "></line>
                </g>
            </g>
        </g>
    </g>
</svg>