<?xml version="1.0" encoding="UTF-8"?>
<svg width="24px" height="25px" viewBox="0 0 24 25" version="1.1" xmlns="http://www.w3.org/2000/svg" xmlns:xlink="http://www.w3.org/1999/xlink">
    <title>rewards备份</title>
    <g id="icon" stroke="none" stroke-width="1" fill="none" fill-rule="evenodd" stroke-linecap="round" stroke-linejoin="round">
        <g id="icon_reward_24" transform="translate(0.000000, 1.000000)" stroke="#979797" stroke-width="1.5">
            <g id="rewards备份" transform="translate(0.000000, -1.000000)">
                <path d="M11.2075399,12 C7.71465045,12.1279651 5,13.0916962 5,14.2615817 C5,15.5185847 8.13400675,16.5375871 12,16.5375871 C15.8659932,16.5375871 19,15.5185847 19,14.2615817" id="路径" transform="translate(12.000000, 14.268794) rotate(-360.000000) translate(-12.000000, -14.268794) "></path>
                <ellipse id="椭圆形备份-4" transform="translate(14.816959, 7.741994) rotate(-327.000000) translate(-14.816959, -7.741994) " cx="14.8169586" cy="7.74199415" rx="7" ry="2.5"></ellipse>
                <path d="M5,19.7239946 C5,20.9809977 8.13400675,22 12,22 C15.8659932,22 19,20.9809977 19,19.7239946" id="路径备份" transform="translate(12.000000, 20.861997) rotate(-360.000000) translate(-12.000000, -20.861997) "></path>
                <path d="M5,16.9927881 C5,18.2497912 8.13400675,19.2687935 12,19.2687935 C15.8659932,19.2687935 19,18.2497912 19,16.9927881" id="路径备份-2" transform="translate(12.000000, 18.130791) rotate(-360.000000) translate(-12.000000, -18.130791) "></path>
                <path d="M5.50224265,10.0563441 C5.50224265,11.4370559 8.63624941,12.5563441 12.5022427,12.5563441 C16.3682359,12.5563441 19.5022427,11.4370559 19.5022427,10.0563441" id="路径备份-3" transform="translate(12.502243, 11.306344) rotate(-327.000000) translate(-12.502243, -11.306344) "></path>
                <line x1="5.00487338" y1="16.9927881" x2="5.00487338" y2="19.7239946" id="路径-51备份-2"></line>
                <line x1="5.00487338" y1="14.2615817" x2="5.00487338" y2="16.9927881" id="路径-51备份-4"></line>
                <line x1="8.95035174" y1="3.93217514" x2="7.31643464" y2="6.44818684" id="路径-51备份-6"></line>
                <line x1="18.9951266" y1="17.2469688" x2="18.9951266" y2="19.9781752" id="路径-51备份-3"></line>
                <line x1="18.9951266" y1="14.5157623" x2="18.9951266" y2="17.2469688" id="路径-51备份-5"></line>
                <line x1="20.5315043" y1="11.7859666" x2="18.8975872" y2="14.3019783" id="路径-51备份-7"></line>
            </g>
        </g>
    </g>
</svg>